<?xml version="1.0" encoding="utf-8"?>
<!-- Generator: Adobe Illustrator 26.3.1, SVG Export Plug-In . SVG Version: 6.00 Build 0)  -->
<svg version="1.1" id="Layer_1" xmlns="http://www.w3.org/2000/svg" xmlns:xlink="http://www.w3.org/1999/xlink" x="0px" y="0px"
	 viewBox="0 0 37 37" style="enable-background:new 0 0 37 37;" xml:space="preserve">
<style type="text/css">
	.st0{fill:none;stroke:#FFF9F2;stroke-width:3.4688;stroke-linecap:round;stroke-linejoin:round;}
	.st1{display:none;fill:#FFF9F2;}
</style>
<path class="st0" d="M6.4,28.3h24.3 M6.4,19.1h24.3 M6.4,9.8h24.3"/>
<path class="st1" d="M7.3,7.5c0.4-0.4,1-0.7,1.6-0.7c0.6,0,1.2,0.2,1.6,0.7l8.1,8.1l8.1-8.1c0.4-0.4,1-0.6,1.6-0.6
	c0.6,0,1.2,0.2,1.6,0.7c0.4,0.4,0.7,1,0.7,1.6c0,0.6-0.2,1.2-0.6,1.6l-8.1,8.1L30,27c0.4,0.4,0.6,1,0.6,1.6c0,0.6-0.2,1.2-0.7,1.6
	c-0.4,0.4-1,0.7-1.6,0.7c-0.6,0-1.2-0.2-1.6-0.6l-8.1-8.1l-8.1,8.1c-0.4,0.4-1,0.6-1.6,0.6c-0.6,0-1.2-0.2-1.6-0.7
	c-0.4-0.4-0.7-1-0.7-1.6c0-0.6,0.2-1.2,0.6-1.6l8.1-8.1l-8.1-8.1c-0.4-0.4-0.7-1-0.7-1.6S6.9,8,7.3,7.5L7.3,7.5z"/>
</svg>
